<svg width="128" height="128" viewBox="0 0 128 128" fill="none" xmlns="http://www.w3.org/2000/svg">
<path d="M106 26.0001C103.465 25.9921 100.958 26.5213 98.6425 27.5526C96.3271 28.584 94.2565 30.0942 92.5671 31.9837C90.8777 33.8733 89.6077 36.0993 88.8409 38.5152C88.074 40.9311 87.8277 43.4821 88.1181 46.0001H82.4001C81.9752 46.0009 81.5616 46.137 81.2192 46.3888C80.8769 46.6405 80.6236 46.9947 80.4961 47.4001L74.8961 64.9201C72.169 63.3496 69.1341 62.3883 66.0001 62.1021V35.8621C70.0382 35.3533 73.7307 33.3248 76.3258 30.1894C78.9209 27.0541 80.2236 23.0476 79.9687 18.9856C79.7139 14.9236 77.9205 11.1113 74.9539 8.32497C71.9872 5.5386 68.0701 3.98755 64.0001 3.98755C59.9301 3.98755 56.0131 5.5386 53.0464 8.32497C50.0797 11.1113 48.2864 14.9236 48.0315 18.9856C47.7767 23.0476 49.0794 27.0541 51.6745 30.1894C54.2696 33.3248 57.962 35.3533 62.0001 35.8621V62.1021C58.8696 62.3836 55.837 63.3387 53.1101 64.9021L47.5101 47.3821C47.3792 46.9791 47.1237 46.6281 46.7804 46.3797C46.4371 46.1313 46.0238 45.9984 45.6001 46.0001H39.8821C40.4121 41.4146 39.1677 36.8001 36.4041 33.1027C33.6405 29.4054 29.5671 26.9055 25.0192 26.1155C20.4713 25.3255 15.7935 26.3053 11.9449 28.8541C8.09635 31.4028 5.36868 35.3273 4.3212 39.8229C3.27373 44.3185 3.98583 49.0445 6.31148 53.0319C8.63714 57.0192 12.4001 59.9658 16.8288 61.2673C21.2576 62.5689 26.0164 62.1268 30.1296 60.0318C34.2428 57.9368 37.3987 54.3475 38.9501 50.0001H44.1401L49.6861 67.3281C47.2771 69.3872 45.3427 71.9437 44.0159 74.8217C42.6891 77.6997 42.0014 80.8309 42.0001 84.0001C42.0001 84.6761 42.0421 85.3401 42.1021 86.0001H16.0001C15.4697 86.0001 14.961 86.2108 14.5859 86.5858C14.2108 86.9609 14.0001 87.4696 14.0001 88.0001V106.368C12.6657 106.84 11.541 107.768 10.8249 108.989C10.1087 110.21 9.8472 111.645 10.0865 113.04C10.3259 114.435 11.0507 115.7 12.1328 116.612C13.2149 117.525 14.5848 118.025 16.0001 118.025C17.4155 118.025 18.7853 117.525 19.8674 116.612C20.9496 115.7 21.6744 114.435 21.9137 113.04C22.1531 111.645 21.8915 110.21 21.1754 108.989C20.4592 107.768 19.3346 106.84 18.0001 106.368V90.0001H42.8521C43.455 92.1264 44.3761 94.1493 45.5841 96.0001H38.0001C37.4697 96.0001 36.961 96.2108 36.5859 96.5858C36.2108 96.9609 36.0001 97.4696 36.0001 98.0001V108.368C34.6657 108.84 33.541 109.768 32.8249 110.989C32.1087 112.21 31.8472 113.645 32.0865 115.04C32.3259 116.435 33.0507 117.7 34.1328 118.612C35.2149 119.525 36.5848 120.025 38.0001 120.025C39.4155 120.025 40.7853 119.525 41.8675 118.612C42.9496 117.7 43.6744 116.435 43.9137 115.04C44.1531 113.645 43.8915 112.21 43.1754 110.989C42.4592 109.768 41.3346 108.84 40.0001 108.368V100H48.9481C52.5149 103.373 57.1114 105.45 62.0001 105.898V112.368C60.6657 112.84 59.541 113.768 58.8249 114.989C58.1087 116.21 57.8472 117.645 58.0865 119.04C58.3259 120.435 59.0507 121.7 60.1328 122.612C61.2149 123.525 62.5848 124.025 64.0001 124.025C65.4155 124.025 66.7853 123.525 67.8674 122.612C68.9496 121.7 69.6744 120.435 69.9137 119.04C70.1531 117.645 69.8915 116.21 69.1754 114.989C68.4592 113.768 67.3346 112.84 66.0001 112.368V105.898C70.8888 105.45 75.4854 103.373 79.0521 100H88.0001V108.368C86.6657 108.84 85.541 109.768 84.8249 110.989C84.1087 112.21 83.8472 113.645 84.0865 115.04C84.3259 116.435 85.0507 117.7 86.1328 118.612C87.215 119.525 88.5848 120.025 90.0001 120.025C91.4155 120.025 92.7853 119.525 93.8674 118.612C94.9496 117.7 95.6744 116.435 95.9137 115.04C96.1531 113.645 95.8915 112.21 95.1754 110.989C94.4592 109.768 93.3346 108.84 92.0001 108.368V98.0001C92.0001 97.4696 91.7894 96.9609 91.4143 96.5858C91.0393 96.2108 90.5306 96.0001 90.0001 96.0001H82.4161C83.6242 94.1493 84.5453 92.1264 85.1481 90.0001H110V106.368C108.666 106.84 107.541 107.768 106.825 108.989C106.109 110.21 105.847 111.645 106.087 113.04C106.326 114.435 107.051 115.7 108.133 116.612C109.215 117.525 110.585 118.025 112 118.025C113.416 118.025 114.785 117.525 115.867 116.612C116.95 115.7 117.674 114.435 117.914 113.04C118.153 111.645 117.892 110.21 117.175 108.989C116.459 107.768 115.335 106.84 114 106.368V88.0001C114 87.4696 113.789 86.9609 113.414 86.5858C113.039 86.2108 112.531 86.0001 112 86.0001H85.8981C85.9581 85.3401 86.0001 84.6761 86.0001 84.0001C85.9989 80.8309 85.3112 77.6997 83.9844 74.8217C82.6576 71.9437 80.7232 69.3872 78.3141 67.3281L83.8601 50.0001H89.0501C90.1504 53.1121 92.0853 55.8617 94.6431 57.9482C97.2009 60.0346 100.283 61.3775 103.553 61.8301C106.823 62.2826 110.154 61.8274 113.182 60.5141C116.21 59.2009 118.819 57.0802 120.724 54.3839C122.628 51.6877 123.754 48.5198 123.979 45.2266C124.204 41.9335 123.519 38.6418 121.999 35.7117C120.479 32.7816 118.183 30.3259 115.361 28.6131C112.539 26.9002 109.301 25.9963 106 26.0001V26.0001ZM17.1141 57.1021C17.1721 57.0361 17.2141 56.9601 17.2761 56.9021C18.104 56.0715 19.2275 55.6033 20.4001 55.6001H23.6001C24.2249 55.5995 24.8425 55.7331 25.4111 55.9919C25.9798 56.2507 26.4862 56.6286 26.8961 57.1001C23.7456 58.2987 20.2646 58.2987 17.1141 57.1001V57.1021ZM22.0001 51.6001C21.4463 51.6001 20.905 51.4358 20.4445 51.1282C19.9841 50.8205 19.6252 50.3832 19.4133 49.8716C19.2013 49.3599 19.1459 48.797 19.2539 48.2538C19.362 47.7107 19.6286 47.2117 20.0202 46.8202C20.4118 46.4286 20.9107 46.1619 21.4539 46.0539C21.997 45.9458 22.56 46.0013 23.0716 46.2132C23.5833 46.4251 24.0206 46.784 24.3282 47.2445C24.6359 47.7049 24.8001 48.2463 24.8001 48.8001C24.8001 49.5427 24.5051 50.2549 23.98 50.78C23.4549 51.3051 22.7427 51.6001 22.0001 51.6001ZM30.4461 55.1381C29.7081 54.0939 28.7389 53.2342 27.6141 52.6261C28.3883 51.5005 28.8019 50.1661 28.8001 48.8001C28.8004 47.7341 28.55 46.683 28.0692 45.7316C27.5884 44.7803 26.8908 43.9552 26.0324 43.3231C25.1741 42.6911 24.1792 42.2696 23.128 42.0928C22.0768 41.916 20.9988 41.9888 19.9809 42.3053C18.9631 42.6218 18.0338 43.1732 17.2683 43.915C16.5028 44.6567 15.9223 45.5681 15.5738 46.5754C15.2253 47.5828 15.1185 48.658 15.2621 49.7143C15.4056 50.7705 15.7954 51.7782 16.4001 52.6561C15.6813 53.0338 15.0195 53.5112 14.4341 54.0741C14.1218 54.4146 13.8376 54.7798 13.5841 55.1661C11.2371 53.403 9.50359 50.9468 8.62875 48.1447C7.7539 45.3427 7.78197 42.3365 8.70898 39.5512C9.63599 36.766 11.415 34.3426 13.7946 32.6237C16.1742 30.9047 19.0338 29.9773 21.9693 29.9724C24.9048 29.9675 27.7675 30.8855 30.1528 32.5965C32.538 34.3075 34.3251 36.725 35.2614 39.5071C36.1976 42.2893 36.2357 45.2953 35.3702 48.1003C34.5046 50.9053 32.7793 53.3672 30.4381 55.1381H30.4461ZM16.0001 114C15.6046 114 15.2179 113.883 14.889 113.663C14.5601 113.443 14.3037 113.131 14.1524 112.765C14.001 112.4 13.9614 111.998 14.0386 111.61C14.1157 111.222 14.3062 110.866 14.5859 110.586C14.8656 110.306 15.222 110.116 15.61 110.038C15.9979 109.961 16.4 110.001 16.7655 110.152C17.131 110.304 17.4433 110.56 17.6631 110.889C17.8828 111.218 18.0001 111.604 18.0001 112C18.0001 112.53 17.7894 113.039 17.4143 113.414C17.0393 113.789 16.5306 114 16.0001 114V114ZM38.0001 116C37.6046 116 37.2179 115.883 36.889 115.663C36.5601 115.443 36.3037 115.131 36.1524 114.765C36.001 114.4 35.9614 113.998 36.0386 113.61C36.1157 113.222 36.3062 112.866 36.5859 112.586C36.8656 112.306 37.222 112.116 37.6099 112.038C37.9979 111.961 38.4 112.001 38.7655 112.152C39.1309 112.304 39.4433 112.56 39.6631 112.889C39.8828 113.218 40.0001 113.604 40.0001 114C40.0001 114.53 39.7894 115.039 39.4143 115.414C39.0393 115.789 38.5306 116 38.0001 116ZM90.0001 116C89.6046 116 89.2179 115.883 88.889 115.663C88.5601 115.443 88.3037 115.131 88.1524 114.765C88.001 114.4 87.9614 113.998 88.0386 113.61C88.1157 113.222 88.3062 112.866 88.5859 112.586C88.8656 112.306 89.222 112.116 89.6099 112.038C89.9979 111.961 90.4 112.001 90.7655 112.152C91.1309 112.304 91.4433 112.56 91.6631 112.889C91.8828 113.218 92.0001 113.604 92.0001 114C92.0001 114.53 91.7894 115.039 91.4143 115.414C91.0393 115.789 90.5306 116 90.0001 116ZM112 114C111.605 114 111.218 113.883 110.889 113.663C110.56 113.443 110.304 113.131 110.152 112.765C110.001 112.4 109.961 111.998 110.039 111.61C110.116 111.222 110.306 110.866 110.586 110.586C110.866 110.306 111.222 110.116 111.61 110.038C111.998 109.961 112.4 110.001 112.765 110.152C113.131 110.304 113.443 110.56 113.663 110.889C113.883 111.218 114 111.604 114 112C114 112.53 113.789 113.039 113.414 113.414C113.039 113.789 112.531 114 112 114ZM64.0001 26.4001C63.565 26.4001 63.1397 26.271 62.7779 26.0293C62.4161 25.7876 62.1341 25.444 61.9676 25.042C61.8011 24.64 61.7575 24.1976 61.8424 23.7709C61.9273 23.3441 62.1368 22.9521 62.4445 22.6444C62.7522 22.3367 63.1442 22.1272 63.5709 22.0423C63.9977 21.9574 64.44 22.001 64.842 22.1675C65.244 22.334 65.5876 22.616 65.8294 22.9778C66.0711 23.3396 66.2001 23.7649 66.2001 24.2001C66.2001 24.7835 65.9683 25.3431 65.5558 25.7557C65.1432 26.1683 64.5836 26.4001 64.0001 26.4001V26.4001ZM62.6001 30.4001H65.4001C66.294 30.4101 67.1512 30.7573 67.8001 31.3721C65.3223 32.2134 62.6353 32.2092 60.1601 31.3601C60.8251 30.7467 61.6955 30.4043 62.6001 30.4001ZM52.0001 20.0001C51.9976 17.9668 52.5117 15.9662 53.4942 14.186C54.4768 12.4059 55.8956 10.9046 57.6174 9.82311C59.3392 8.74161 61.3076 8.11536 63.3378 8.00313C65.368 7.89091 67.3934 8.29639 69.2239 9.18153C71.0545 10.0667 72.6301 11.4024 73.8029 13.0634C74.9756 14.7244 75.7071 16.6561 75.9287 18.6773C76.1502 20.6985 75.8546 22.7429 75.0694 24.6185C74.2843 26.4941 73.0355 28.1394 71.4401 29.4001C70.8419 28.6157 70.0942 27.9577 69.2401 27.4641C69.8617 26.4884 70.1945 25.3568 70.2001 24.2001C70.2057 23.237 69.9868 22.2859 69.5609 21.4221C69.135 20.5584 68.5136 19.8057 67.7462 19.2239C66.9788 18.642 66.0864 18.2469 65.1398 18.0699C64.1931 17.8929 63.2182 17.9388 62.2924 18.2041C61.3666 18.4694 60.5153 18.9467 59.8061 19.5982C59.0968 20.2497 58.5491 21.0574 58.2063 21.9574C57.8635 22.8574 57.7351 23.8249 57.8312 24.7832C57.9273 25.7414 58.2454 26.6641 58.7601 27.4781C58.1968 27.799 57.6754 28.1886 57.2081 28.6381C56.9882 28.888 56.7839 29.1512 56.5961 29.4261C55.1655 28.3062 54.0082 26.8757 53.212 25.2427C52.4157 23.6096 52.0013 21.8169 52.0001 20.0001V20.0001ZM64.0001 94.0001C63.209 94.0001 62.4356 93.7655 61.7778 93.3259C61.1201 92.8864 60.6074 92.2617 60.3046 91.5308C60.0019 90.7999 59.9226 89.9956 60.077 89.2197C60.2313 88.4438 60.6123 87.731 61.1717 87.1716C61.7311 86.6122 62.4438 86.2313 63.2198 86.0769C63.9957 85.9226 64.8 86.0018 65.5309 86.3045C66.2618 86.6073 66.8865 87.12 67.326 87.7778C67.7655 88.4356 68.0001 89.2089 68.0001 90.0001C68.0001 91.0609 67.5787 92.0783 66.8286 92.8285C66.0784 93.5786 65.061 94.0001 64.0001 94.0001ZM62.0001 98.0001H66.0001C66.9728 97.9965 67.9315 98.2317 68.7921 98.685C69.6527 99.1383 70.3889 99.7959 70.9361 100.6C68.7423 101.518 66.3881 101.99 64.0101 101.99C61.6322 101.99 59.2779 101.518 57.0841 100.6C57.608 99.7779 58.3366 99.106 59.1984 98.6502C60.0602 98.1944 61.0257 97.9703 62.0001 98.0001V98.0001ZM64.0001 120C63.6046 120 63.2179 119.883 62.889 119.663C62.5601 119.443 62.3037 119.131 62.1524 118.765C62.001 118.4 61.9614 117.998 62.0386 117.61C62.1157 117.222 62.3062 116.866 62.5859 116.586C62.8656 116.306 63.222 116.116 63.6099 116.038C63.9979 115.961 64.4 116.001 64.7655 116.152C65.1309 116.304 65.4433 116.56 65.6631 116.889C65.8828 117.218 66.0001 117.604 66.0001 118C66.0001 118.53 65.7894 119.039 65.4143 119.414C65.0393 119.789 64.5306 120 64.0001 120ZM82.0001 84.0001C81.9976 86.8707 81.3078 89.699 79.9884 92.2484C78.6689 94.7978 76.7583 96.9943 74.4161 98.6541C73.4079 97.0427 71.9547 95.7577 70.2321 94.9541C71.3692 93.5527 71.993 91.8047 72.0001 90.0001C72.0001 87.8783 71.1573 85.8435 69.657 84.3432C68.1567 82.8429 66.1219 82.0001 64.0001 82.0001C61.8784 82.0001 59.8436 82.8429 58.3433 84.3432C56.843 85.8435 56.0001 87.8783 56.0001 90.0001C56.0077 91.8125 56.6367 93.5674 57.7821 94.9721C56.0375 95.7394 54.5682 97.0203 53.5701 98.6441C51.0528 96.8543 49.0383 94.4469 47.7206 91.6534C46.4028 88.8598 45.826 85.7742 46.0458 82.6933C46.2655 79.6124 47.2743 76.6399 48.9752 74.0617C50.6761 71.4834 53.0118 69.3863 55.7577 67.9719C58.5036 66.5575 61.5672 65.8736 64.6539 65.9857C67.7406 66.0979 70.7465 67.0025 73.3825 68.6125C76.0184 70.2224 78.1957 72.4836 79.705 75.1785C81.2142 77.8734 82.0046 80.9113 82.0001 84.0001V84.0001ZM101.104 57.1001C101.514 56.6286 102.02 56.2507 102.589 55.9919C103.158 55.7331 103.775 55.5995 104.4 55.6001H107.6C108.761 55.5986 109.875 56.0558 110.7 56.8721C110.77 56.9441 110.816 57.0281 110.882 57.1041C107.733 58.3014 104.254 58.3014 101.104 57.1041V57.1001ZM106 51.6001C105.446 51.6001 104.905 51.4358 104.445 51.1282C103.984 50.8205 103.625 50.3832 103.413 49.8716C103.201 49.3599 103.146 48.797 103.254 48.2538C103.362 47.7107 103.629 47.2117 104.02 46.8202C104.412 46.4286 104.911 46.1619 105.454 46.0539C105.997 45.9458 106.56 46.0013 107.072 46.2132C107.583 46.4251 108.021 46.784 108.328 47.2445C108.636 47.7049 108.8 48.2463 108.8 48.8001C108.8 49.5427 108.505 50.2549 107.98 50.78C107.455 51.3051 106.743 51.6001 106 51.6001ZM114.4 55.1681C114.138 54.7726 113.846 54.3982 113.526 54.0481C112.947 53.4937 112.295 53.0226 111.586 52.6481C112.292 51.6289 112.705 50.4362 112.782 49.199C112.859 47.9619 112.596 46.7272 112.022 45.6286C111.448 44.53 110.585 43.6091 109.525 42.9656C108.466 42.3222 107.25 41.9805 106.011 41.9776C104.771 41.9748 103.555 42.3108 102.492 42.9493C101.43 43.5879 100.562 44.5047 99.9829 45.6006C99.4037 46.6966 99.1352 47.93 99.2063 49.1675C99.2773 50.4051 99.6853 51.5996 100.386 52.6221C99.2614 53.2302 98.2922 54.0899 97.5541 55.1341C95.2132 53.3629 93.4881 50.9008 92.6229 48.0957C91.7577 45.2907 91.7962 42.2846 92.7327 39.5025C93.6693 36.7205 95.4567 34.3032 97.8422 32.5925C100.228 30.8818 103.09 29.9642 106.026 29.9694C108.961 29.9746 111.821 30.9024 114.2 32.6216C116.58 34.3408 118.358 36.7644 119.285 39.5498C120.212 42.3352 120.24 45.3414 119.364 48.1433C118.489 50.9453 116.755 53.4013 114.408 55.1641L114.4 55.1681Z" fill="url(#paint0_linear_22_528)"/>
<defs>
<linearGradient id="paint0_linear_22_528" x1="63.9352" y1="3.98755" x2="63.9352" y2="124.025" gradientUnits="userSpaceOnUse">
<stop stop-color="#2C9292"/>
<stop offset="1" stop-color="#036666"/>
</linearGradient>
</defs>
</svg>
