<svg width="128" height="128" viewBox="0 0 128 128" fill="none" xmlns="http://www.w3.org/2000/svg">
<g clip-path="url(#clip0_22_533)">
<path d="M44 30C52.2843 30 59 23.2843 59 15C59 6.71573 52.2843 0 44 0C35.7157 0 29 6.71573 29 15C29 23.2843 35.7157 30 44 30Z" fill="url(#paint0_linear_22_533)"/>
<path d="M126 54H122V48C122 47.4696 121.789 46.9609 121.414 46.5858C121.039 46.2107 120.53 46 120 46H96C95.4696 46 94.9609 46.2107 94.5858 46.5858C94.2107 46.9609 94 47.4696 94 48V56C94 56.5304 94.2107 57.0391 94.5858 57.4142C94.9609 57.7893 95.4696 58 96 58H100V62H97C96.4696 62 95.9609 62.2107 95.5858 62.5858C95.2107 62.9609 95 63.4696 95 64V70H4C2.93913 70 1.92172 70.4214 1.17157 71.1716C0.421427 71.9217 0 72.9391 0 74L0 80C0 81.0609 0.421427 82.0783 1.17157 82.8284C1.92172 83.5786 2.93913 84 4 84H10V126C10 126.53 10.2107 127.039 10.5858 127.414C10.9609 127.789 11.4696 128 12 128C12.5304 128 13.0391 127.789 13.4142 127.414C13.7893 127.039 14 126.53 14 126V96H81V105C81.0017 106.591 81.6344 108.116 82.7593 109.241C83.8841 110.366 85.4092 110.998 87 111H114V126C114 126.53 114.211 127.039 114.586 127.414C114.961 127.789 115.47 128 116 128C116.53 128 117.039 127.789 117.414 127.414C117.789 127.039 118 126.53 118 126V84H124C125.061 84 126.078 83.5786 126.828 82.8284C127.579 82.0783 128 81.0609 128 80V74C128 72.9391 127.579 71.9217 126.828 71.1716C126.078 70.4214 125.061 70 124 70H123V66H126C126.53 66 127.039 65.7893 127.414 65.4142C127.789 65.0391 128 64.5304 128 64V56C128 55.4696 127.789 54.9609 127.414 54.5858C127.039 54.2107 126.53 54 126 54ZM98 54V50H118V54H98ZM114 107H87C86.4698 106.999 85.9614 106.788 85.5865 106.414C85.2115 106.039 85.0006 105.53 85 105V96H114V107ZM114 92H14V84H114V92ZM119 70H99V66H119V70Z" fill="url(#paint1_linear_22_533)"/>
<path d="M11 63.65V66H15.0001V63.6499C16.1683 63.2361 17.1799 62.4709 17.8961 61.4593C18.6122 60.4478 18.9978 59.2394 19 58V54C18.9978 52.7606 18.6122 51.5522 17.8961 50.5407C17.1799 49.5291 16.1683 48.764 15.0001 48.3501L15.0001 42.5146L42 51.9398V66H46V51.7991L73 41.7559V48.35C71.8317 48.7638 70.8201 49.529 70.1039 50.5406C69.3878 51.5522 69.0021 52.7606 69 54V58C69.0021 59.2394 69.3878 60.4478 70.1039 61.4594C70.8201 62.471 71.8317 63.2362 73 63.65V66H77V63.65C78.1683 63.2362 79.1799 62.471 79.8961 61.4594C80.6122 60.4478 80.9979 59.2394 81 58V54C80.9979 52.7606 80.6122 51.5522 79.8961 50.5406C79.1799 49.529 78.1683 48.7638 77 48.35V40C77.0404 39.6439 77.0054 39.2832 76.8972 38.9415C76.789 38.5998 76.6101 38.2847 76.3721 38.0168C76.134 37.7488 75.8422 37.534 75.5156 37.3863C75.1891 37.2386 74.835 37.1613 74.4766 37.1595C74.0573 37.1643 73.6423 37.2438 73.251 37.3945L71.3562 38.0993C70.0982 35.4726 68.2712 33.1589 66.0077 31.3261C63.7442 29.4933 61.1011 28.1875 58.2701 27.5034C57.0845 28.8561 55.714 30.0347 54.199 31.0044C56.9979 31.0581 59.7287 31.8772 62.0952 33.3726C64.4618 34.8681 66.3737 36.9829 67.6237 39.4878L44.1633 48.2146C43.9449 48.2958 43.705 48.2983 43.4851 48.2215L20.1179 40.0644C21.303 37.4107 23.2193 35.1494 25.6426 33.5449C28.0659 31.9405 30.896 31.0592 33.8018 31.0043C32.2866 30.0346 30.9158 28.8559 29.73 27.5031C26.7803 28.213 24.0357 29.5979 21.7122 31.5488C19.3887 33.4997 17.5497 35.9633 16.3402 38.7457L14.7766 38.1998C14.3998 38.0641 14.0029 37.9929 13.6025 37.9891C13.2357 37.9894 12.873 38.0668 12.538 38.2162C12.203 38.3656 11.9031 38.5837 11.6578 38.8563C11.4125 39.129 11.2271 39.4502 11.1138 39.799C11.0005 40.1479 10.9617 40.5167 11 40.8815V48.35C9.8317 48.7638 8.82007 49.529 8.10391 50.5406C7.38775 51.5522 7.00214 52.7606 7 54V58C7.00214 59.2394 7.38775 60.4478 8.10391 61.4594C8.82007 62.471 9.8317 63.2362 11 63.65V63.65ZM96 30C98.9667 30 101.867 29.1203 104.334 27.4721C106.8 25.8238 108.723 23.4812 109.858 20.7403C110.994 17.9994 111.291 14.9834 110.712 12.0737C110.133 9.16394 108.704 6.49119 106.607 4.3934C104.509 2.29562 101.836 0.867006 98.9264 0.288228C96.0166 -0.290551 93.0006 0.00649929 90.2598 1.14181C87.5189 2.27713 85.1762 4.19972 83.528 6.66645C81.8797 9.13319 81 12.0333 81 15C81.0044 18.9769 82.5862 22.7896 85.3983 25.6017C88.2104 28.4138 92.0231 29.9956 96 30V30ZM94 10C94 9.46957 94.2107 8.96087 94.5858 8.58579C94.9609 8.21072 95.4696 8.00001 96 8.00001C96.5304 8.00001 97.0391 8.21072 97.4142 8.58579C97.7893 8.96087 98 9.46957 98 10V13H101C101.53 13 102.039 13.2107 102.414 13.5858C102.789 13.9609 103 14.4696 103 15C103 15.5304 102.789 16.0391 102.414 16.4142C102.039 16.7893 101.53 17 101 17H96C95.4696 17 94.9609 16.7893 94.5858 16.4142C94.2107 16.0391 94 15.5304 94 15V10Z" fill="url(#paint2_linear_22_533)"/>
</g>
<defs>
<linearGradient id="paint0_linear_22_533" x1="44" y1="0" x2="44" y2="30" gradientUnits="userSpaceOnUse">
<stop stop-color="#2E9595"/>
<stop offset="1" stop-color="#006363"/>
</linearGradient>
<linearGradient id="paint1_linear_22_533" x1="64" y1="46" x2="64" y2="128" gradientUnits="userSpaceOnUse">
<stop stop-color="#2E9595"/>
<stop offset="1" stop-color="#006363"/>
</linearGradient>
<linearGradient id="paint2_linear_22_533" x1="59" y1="0" x2="59" y2="66" gradientUnits="userSpaceOnUse">
<stop stop-color="#2E9595"/>
<stop offset="1" stop-color="#006363"/>
</linearGradient>
<clipPath id="clip0_22_533">
<rect width="128" height="128" fill="white"/>
</clipPath>
</defs>
</svg>
